PathFileType	4	(X/Y/Z)	C:/Users/opensim2020/Desktop/walking_exp_matlab/subject03_walking06_straight_04.trc																																																																																																																																		
DataRate	CameraRate	NumFrames	NumMarkers	Units	OrigDataRate	OrigDataStartFrame	OrigNumFrames																																																																																																																														
100	100	4	44	mm	100	2729	278																																																																																																																														
Frame#	Time	LFHD			RFHD			LBHD			RBHD			C7			T10			CLAV			STRN			RBAK			LSHO			LUPA			LELB			LFRM			LWRA			LWRB			LFIN			RSHO			RUPA			RELB			RFRM			RWRA			RWRB			RFIN			LASI			RASI			LPSI			RPSI			LTHI			LKNE			LTIB			LANK			LHEE			LTOE			RTHI			RKNE			RTIB			RANK			RHEE			RTOE			*39			*40			*41			*42			*43		
		X1	Y1	Z1	X2	Y2	Z2	X3	Y3	Z3	X4	Y4	Z4	X5	Y5	Z5	X6	Y6	Z6	X7	Y7	Z7	X8	Y8	Z8	X9	Y9	Z9	X10	Y10	Z10	X11	Y11	Z11	X12	Y12	Z12	X13	Y13	Z13	X14	Y14	Z14	X15	Y15	Z15	X16	Y16	Z16	X17	Y17	Z17	X18	Y18	Z18	X19	Y19	Z19	X20	Y20	Z20	X21	Y21	Z21	X22	Y22	Z22	X23	Y23	Z23	X24	Y24	Z24	X25	Y25	Z25	X26	Y26	Z26	X27	Y27	Z27	X28	Y28	Z28	X29	Y29	Z29	X30	Y30	Z30	X31	Y31	Z31	X32	Y32	Z32	X33	Y33	Z33	X34	Y34	Z34	X35	Y35	Z35	X36	Y36	Z36	X37	Y37	Z37	X38	Y38	Z38	X39	Y39	Z39	X40	Y40	Z40	X41	Y41	Z41	X42	Y42	Z42	X43	Y43	Z43	X44	Y44	Z44
																																																																																																																																					
1	0	-1312.50085	1599.7074	872.04492	-1330.27405	1610.58789	1003.44946	-1440.1604	1552.44275	862.73053	-1452.40588	1562.83667	992.77136	-1475.79236	1400.51563	921.56433	-1521.69116	1089.9491	927.45917	-1356.50623	1320.38953	938.26642	-1318.90649	1153.57141	937.65637	-1545.69238	1228.42773	1009.79285	-1381.52112	1359.10437	778.95135	-1352.02051	1169.39819	704.06799	-1310.7179	1054.35864	696.90363	-1230.50208	958.47833	722.39935	-1162.67358	874.36902	777.81042	-1173.67932	859.94458	724.42596	-1114.63782	806.9021	750.54663	-1422.39307	1346.125	1091.37781	-1464.50659	1127.68713	1163.25525	-1470.98486	1015.37488	1180.37329	-1480.3031	878.57227	1187.79333	-1462.75793	777.53802	1160.00586	-1502.03284	780.59589	1198.4248	-1495.74023	704.68396	1189.69177	-1354.55359	920.78577	826.72479	-1367.20776	926.58496	1063.90698	-1518.57568	944.56268	870.05914	-1526.38831	949.58862	1018.21619	-1444.03918	624.02545	797.73584	-1479.86694	449.94144	838.30255	-1575.51929	275.431	834.46625	-1646.8783	75.46002	878.14697	-1696.68298	47.53365	910.12897	-1503.98499	27.74133	918.02234	-1371.07532	632.94781	1125.47583	-1289.95032	469.94513	1098.29724	-1269.17383	287.51639	1113.51111	-1204.84216	75.68311	1086.58496	-1230.74341	35.48784	1029.82886	-1055.95813	67.2401	1081.82874	-1402.75635	1660.83301	909.03339	NaN	NaN	NaN	NaN	NaN	NaN	NaN	NaN	NaN	NaN	NaN	NaN
2	0.01	-1302.8136	1598.99756	874.28168	-1320.29443	1609.76184	1005.77722	-1430.44604	1551.72852	865.20892	-1442.44836	1562.1073	995.31128	-1466.02368	1399.80859	923.86139	-1512.08496	1089.31177	929.51721	-1346.67639	1319.67432	940.33594	-1309.15662	1152.78406	939.38019	-1535.89929	1227.69873	1011.89063	-1371.96411	1358.54053	781.06281	-1343.10657	1168.86841	705.93835	-1301.75	1053.79395	698.68494	-1221.24194	958.13922	724.10144	-1152.97412	874.56323	779.46912	-1164.04309	859.86432	726.22333	-1104.44531	807.77246	752.0354	-1412.54248	1345.21997	1093.56238	-1455.04382	1126.77917	1165.25281	-1461.71484	1014.46625	1182.14478	-1471.06018	877.64618	1189.24927	-1453.46912	776.742	1161.28735	-1492.74622	779.61517	1199.64465	-1486.27734	703.78693	1190.91113	-1345.49976	920.00885	828.34778	-1357.255	925.90186	1065.46252	-1509.35181	944.03931	872.46747	-1516.54187	949.14624	1020.57544	-1436.63501	623.6571	798.5954	-1473.52551	449.57144	838.4325	-1571.79065	276.23456	834.22833	-1645.96362	77.13197	877.35181	-1696.08594	49.86117	909.30341	-1503.81165	27.58006	917.84589	-1361.63	632.1109	1125.95239	-1281.38672	468.77902	1098.43884	-1260.47473	286.27728	1113.00525	-1195.00989	74.71179	1085.57983	-1220.71704	34.50203	1028.78809	-1045.98865	67.09158	1080.3645	-1392.94629	1660.16089	911.51398	NaN	NaN	NaN	NaN	NaN	NaN	NaN	NaN	NaN	NaN	NaN	NaN
3	0.02	-1292.9845	1598.36523	876.56262	-1310.23975	1609.02527	1008.11542	-1420.64429	1551.07935	867.63483	-1432.34351	1561.41553	997.7691	-1456.1991	1399.17493	926.22864	-1502.3335	1088.72424	931.59491	-1336.73315	1319.05908	942.50635	-1299.26367	1152.17151	941.23523	-1525.96497	1226.98657	1014.00214	-1362.37292	1358.04382	783.2323	-1334.15125	1168.40649	708.03192	-1292.92847	1053.28137	700.68842	-1212.26624	957.70471	725.86639	-1143.75244	874.41925	781.06116	-1154.9751	859.50378	727.89819	-1094.82056	808.21985	753.34668	-1402.60034	1344.43115	1095.7616	-1445.38965	1126.02319	1167.22913	-1452.16516	1013.69495	1183.93835	-1461.40723	876.83582	1190.77039	-1443.68018	776.06409	1162.60559	-1483.02856	778.80182	1200.95251	-1476.25537	702.99719	1192.12451	-1336.42004	919.34485	829.97009	-1347.14417	925.39307	1067.09094	-1499.9386	943.5827	874.85834	-1506.55884	948.88086	1022.99915	-1429.18225	623.41235	799.45868	-1466.96692	449.17548	838.63086	-1567.89197	277.23056	833.9549	-1644.67004	78.56391	876.6391	-1695.40845	52.43066	908.34924	-1503.62842	27.4308	917.67761	-1351.604	631.47644	1126.43347	-1272.26941	467.69788	1098.37573	-1252.19421	284.95923	1112.55286	-1187.54016	73.46326	1084.15027	-1213.55603	33.22461	1027.39392	-1038.48889	65.48234	1078.30347	-1383.04089	1659.66809	914.06036	NaN	NaN	NaN	NaN	NaN	NaN	NaN	NaN	NaN	NaN	NaN	NaN
4	0.03	-1283.16382	1597.85742	878.84235	-1300.1283	1608.41821	1010.44043	-1410.92957	1550.82922	870.17224	-1422.55737	1560.97888	1000.53534	-1446.2915	1398.60742	928.62024	-1492.42566	1088.19153	933.75214	-1326.67053	1318.52319	944.61603	-1289.21643	1151.70142	943.0069	-1515.86877	1226.3103	1016.12811	-1352.69946	1357.73108	785.37933	-1324.91699	1167.96484	710.21692	-1284.03503	1052.80859	702.8053	-1203.5177	957.22827	727.56818	-1134.9032	873.98907	782.60504	-1146.4071	858.93341	729.46796	-1085.73853	808.20685	754.59515	-1392.5968	1343.80701	1098.00244	-1435.56262	1125.41931	1169.28857	-1442.2981	1013.0166	1185.76294	-1451.38196	876.16064	1192.3291	-1433.57361	775.50275	1163.95972	-1472.82397	778.06348	1202.30029	-1465.86267	702.36224	1193.40295	-1327.19592	918.52869	831.5835	-1336.88257	924.9729	1068.74243	-1490.4635	943.26202	877.32977	-1496.35901	948.7373	1025.40564	-1421.58252	623.24646	800.34491	-1460.23071	448.99609	838.7207	-1563.75439	278.30862	833.67682	-1643.56934	80.75295	875.77936	-1694.63342	55.32246	907.41467	-1503.42188	27.27126	917.52057	-1341.17615	631.03888	1127.00952	-1262.63538	467.05508	1098.73035	-1244.21521	283.58072	1111.97791	-1181.99878	71.49278	1082.38562	-1208.80066	31.80348	1025.75244	-1033.28333	62.19812	1075.82117	-1373.01611	1659.29138	916.7005	NaN	NaN	NaN	NaN	NaN	NaN	NaN	NaN	NaN	NaN	NaN	NaN
